<svg id="svg" version="1.1" xmlns="http://www.w3.org/2000/svg" xmlns:xlink="http://www.w3.org/1999/xlink" width="400" height="400" viewBox="0, 0, 400,400"><g id="svgg"><path id="path0" d="M320.400 154.000 C 320.400 154.220,320.034 154.400,319.587 154.400 C 319.141 154.400,318.671 154.670,318.545 155.000 C 318.418 155.330,317.961 155.600,317.529 155.600 C 316.679 155.600,315.600 156.479,315.600 157.171 C 315.600 157.407,315.407 157.600,315.171 157.600 C 314.514 157.600,313.600 158.662,313.600 159.427 C 313.600 159.804,313.292 160.337,312.915 160.613 C 312.330 161.040,312.310 161.209,312.775 161.769 C 313.210 162.294,313.227 162.733,312.860 163.959 C 310.641 171.363,316.896 179.738,324.600 179.678 C 331.137 179.628,332.400 179.510,332.400 178.954 C 332.400 178.649,332.593 178.400,332.829 178.400 C 333.382 178.400,334.400 177.382,334.400 176.829 C 334.400 176.593,334.593 176.400,334.829 176.400 C 335.382 176.400,336.400 175.382,336.400 174.829 C 336.400 174.593,336.670 174.400,337.000 174.400 C 337.419 174.400,337.600 173.978,337.600 173.000 C 337.600 172.230,337.780 171.600,338.000 171.600 C 338.243 171.600,338.400 169.800,338.400 167.000 C 338.400 164.200,338.243 162.400,338.000 162.400 C 337.780 162.400,337.600 161.770,337.600 161.000 C 337.600 160.022,337.419 159.600,337.000 159.600 C 336.670 159.600,336.400 159.407,336.400 159.171 C 336.400 158.618,335.382 157.600,334.829 157.600 C 334.593 157.600,334.400 157.407,334.400 157.171 C 334.400 156.466,333.314 155.600,332.429 155.600 C 331.959 155.600,331.600 155.340,331.600 155.000 C 331.600 154.627,331.222 154.400,330.600 154.400 C 330.050 154.400,329.600 154.220,329.600 154.000 C 329.600 153.757,327.800 153.600,325.000 153.600 C 322.200 153.600,320.400 153.757,320.400 154.000 M186.172 187.186 C 184.895 187.703,183.929 189.504,183.900 191.422 C 183.820 196.737,190.979 198.338,193.109 193.481 C 194.988 189.197,190.736 185.339,186.172 187.186 M283.300 200.256 C 282.661 200.525,282.583 215.646,283.214 216.826 C 283.806 217.933,285.524 217.849,285.806 216.700 C 285.927 216.205,285.976 212.290,285.913 208.000 L 285.800 200.200 284.800 200.123 C 284.250 200.080,283.575 200.140,283.300 200.256 M248.267 217.867 C 248.120 218.013,248.000 230.433,248.000 245.467 L 248.000 272.800 252.600 272.800 L 257.200 272.800 257.200 245.200 L 257.200 217.600 252.867 217.600 C 250.483 217.600,248.413 217.720,248.267 217.867 M311.224 229.460 C 302.110 232.650,300.412 244.161,308.250 249.620 C 311.268 251.723,314.686 252.516,316.100 251.443 C 317.695 250.232,316.361 248.000,314.042 248.000 C 311.898 248.000,308.000 245.124,308.000 243.542 C 308.000 243.160,307.820 242.736,307.600 242.600 C 307.380 242.464,307.200 241.575,307.200 240.625 C 307.200 236.381,310.387 232.800,314.164 232.800 C 316.257 232.800,317.618 230.578,316.320 229.280 C 315.667 228.627,313.373 228.708,311.224 229.460 " stroke="none" fill="#070706" fill-rule="evenodd"></path><path id="path1" d="M101.600 140.000 C 101.600 140.220,100.964 140.400,100.187 140.400 C 99.301 140.400,98.689 140.623,98.545 141.000 C 98.418 141.330,97.884 141.600,97.357 141.600 C 96.831 141.600,96.400 141.780,96.400 142.000 C 96.400 142.222,95.333 142.400,94.000 142.400 C 92.133 142.400,91.600 142.533,91.600 143.000 C 91.600 143.338,91.242 143.600,90.781 143.600 C 89.808 143.600,86.400 146.833,86.400 147.756 C 86.400 148.110,86.220 148.400,86.000 148.400 C 85.780 148.400,85.600 149.281,85.600 150.357 C 85.600 151.728,85.420 152.383,85.000 152.545 C 84.589 152.702,84.400 153.345,84.400 154.587 C 84.400 155.932,84.555 156.400,85.000 156.400 C 85.433 156.400,85.600 156.844,85.600 158.000 C 85.600 158.880,85.780 159.600,86.000 159.600 C 86.220 159.600,86.400 160.050,86.400 160.600 C 86.400 161.150,86.593 161.600,86.829 161.600 C 87.382 161.600,88.400 162.618,88.400 163.171 C 88.400 163.407,88.593 163.600,88.829 163.600 C 89.382 163.600,90.400 164.618,90.400 165.171 C 90.400 165.407,90.593 165.600,90.829 165.600 C 91.382 165.600,92.400 166.618,92.400 167.171 C 92.400 167.407,92.593 167.600,92.829 167.600 C 93.382 167.600,94.400 168.618,94.400 169.171 C 94.400 169.407,94.593 169.600,94.829 169.600 C 95.382 169.600,96.400 170.618,96.400 171.171 C 96.400 171.407,96.593 171.600,96.829 171.600 C 97.382 171.600,98.400 172.618,98.400 173.171 C 98.400 173.407,98.593 173.600,98.829 173.600 C 99.382 173.600,100.400 174.618,100.400 175.171 C 100.400 175.407,100.593 175.600,100.829 175.600 C 101.382 175.600,102.400 176.618,102.400 177.171 C 102.400 177.407,102.593 177.600,102.829 177.600 C 103.382 177.600,104.400 178.618,104.400 179.171 C 104.400 179.407,104.593 179.600,104.829 179.600 C 105.382 179.600,106.400 180.618,106.400 181.171 C 106.400 181.407,106.593 181.600,106.829 181.600 C 107.382 181.600,108.400 182.618,108.400 183.171 C 108.400 183.407,108.670 183.600,109.000 183.600 C 109.520 183.600,109.600 185.244,109.600 196.000 L 109.600 208.400 108.600 208.400 C 107.978 208.400,107.600 208.627,107.600 209.000 C 107.600 209.373,107.222 209.600,106.600 209.600 C 106.050 209.600,105.600 209.780,105.600 210.000 C 105.600 210.220,104.964 210.400,104.187 210.400 C 103.301 210.400,102.689 210.623,102.545 211.000 C 102.418 211.330,101.961 211.600,101.529 211.600 C 100.679 211.600,99.600 212.479,99.600 213.171 C 99.600 213.407,99.216 213.600,98.746 213.600 C 98.276 213.600,97.475 214.050,96.965 214.600 C 96.455 215.150,95.747 215.600,95.391 215.600 C 94.656 215.600,93.600 216.527,93.600 217.171 C 93.600 217.407,93.407 217.600,93.171 217.600 C 92.618 217.600,91.600 218.618,91.600 219.171 C 91.600 219.407,91.330 219.600,91.000 219.600 C 90.643 219.600,90.400 219.967,90.400 220.505 C 90.400 221.004,89.951 221.747,89.400 222.161 C 88.850 222.574,88.400 223.247,88.400 223.656 C 88.400 224.065,88.220 224.400,88.000 224.400 C 87.780 224.400,87.600 224.831,87.600 225.357 C 87.600 225.884,87.330 226.418,87.000 226.545 C 86.670 226.671,86.400 227.141,86.400 227.587 C 86.400 228.034,86.220 228.400,86.000 228.400 C 85.780 228.400,85.600 229.120,85.600 230.000 C 85.600 231.156,85.433 231.600,85.000 231.600 C 84.479 231.600,84.400 233.356,84.400 245.000 L 84.400 258.400 69.000 258.400 C 55.578 258.400,53.600 258.477,53.600 259.000 C 53.600 259.330,53.407 259.600,53.171 259.600 C 52.618 259.600,51.600 260.618,51.600 261.171 C 51.600 261.407,51.407 261.600,51.171 261.600 C 50.073 261.600,49.600 262.807,49.600 265.612 L 49.600 268.481 51.488 270.451 C 54.356 273.444,46.864 273.244,151.511 273.116 L 246.822 273.000 246.806 245.901 C 246.789 219.226,246.802 218.791,247.595 218.112 C 248.444 217.385,248.677 216.400,248.000 216.400 C 247.780 216.400,247.600 215.764,247.600 214.987 C 247.600 214.142,247.374 213.488,247.037 213.359 C 246.727 213.240,245.872 211.954,245.137 210.500 C 244.312 208.870,242.771 206.823,241.115 205.158 C 238.370 202.397,237.783 201.985,234.057 200.199 C 232.420 199.415,231.967 199.010,232.138 198.486 C 232.261 198.109,232.725 196.810,233.168 195.600 C 235.557 189.079,232.195 182.678,225.278 180.579 C 221.532 179.442,218.851 180.097,219.311 182.037 C 221.450 191.057,221.373 194.460,218.876 201.400 C 216.701 207.443,211.749 213.110,205.880 216.269 C 197.138 220.976,182.984 220.715,174.400 215.689 C 170.015 213.121,163.200 205.661,163.200 203.428 C 163.200 202.008,161.831 201.600,157.069 201.600 C 154.223 201.600,152.400 201.756,152.400 202.000 C 152.400 202.229,151.196 202.400,149.587 202.400 C 147.456 202.400,146.719 202.545,146.545 203.000 C 146.383 203.420,145.728 203.600,144.357 203.600 L 142.400 203.600 142.400 188.000 C 142.400 177.867,142.260 172.400,142.000 172.400 C 141.780 172.400,141.600 171.770,141.600 171.000 C 141.600 170.022,141.419 169.600,141.000 169.600 C 140.662 169.600,140.400 169.242,140.400 168.781 C 140.400 167.808,137.167 164.400,136.244 164.400 C 135.890 164.400,135.600 164.220,135.600 164.000 C 135.600 163.780,135.330 163.600,135.000 163.600 C 134.670 163.600,134.400 163.407,134.400 163.171 C 134.400 162.618,133.382 161.600,132.829 161.600 C 132.593 161.600,132.400 161.407,132.400 161.171 C 132.400 160.618,131.382 159.600,130.829 159.600 C 130.593 159.600,130.400 159.407,130.400 159.171 C 130.400 158.618,129.382 157.600,128.829 157.600 C 128.593 157.600,128.400 157.407,128.400 157.171 C 128.400 156.936,128.143 156.486,127.829 156.171 C 127.514 155.857,127.064 155.600,126.829 155.600 C 126.593 155.600,126.400 155.407,126.400 155.171 C 126.400 154.936,126.143 154.486,125.829 154.171 C 125.514 153.857,125.064 153.600,124.829 153.600 C 124.593 153.600,124.400 153.407,124.400 153.171 C 124.400 152.618,123.382 151.600,122.829 151.600 C 122.593 151.600,122.400 151.407,122.400 151.171 C 122.400 150.535,121.347 149.600,120.631 149.600 C 120.287 149.600,118.402 147.980,116.443 146.000 C 114.484 144.020,112.592 142.400,112.240 142.400 C 111.888 142.400,111.600 142.220,111.600 142.000 C 111.600 141.780,111.330 141.600,111.000 141.600 C 110.670 141.600,110.400 141.330,110.400 141.000 C 110.400 140.581,109.978 140.400,109.000 140.400 C 108.230 140.400,107.600 140.220,107.600 140.000 C 107.600 139.769,106.333 139.600,104.600 139.600 C 102.867 139.600,101.600 139.769,101.600 140.000 M291.600 162.000 C 291.600 162.220,290.700 162.400,289.600 162.400 C 288.089 162.400,287.600 162.547,287.600 163.000 C 287.600 163.453,287.111 163.600,285.600 163.600 C 284.500 163.600,283.600 163.780,283.600 164.000 C 283.600 164.220,282.964 164.400,282.187 164.400 C 281.301 164.400,280.689 164.623,280.545 165.000 C 280.418 165.330,279.961 165.600,279.529 165.600 C 278.679 165.600,277.600 166.479,277.600 167.171 C 277.600 167.407,277.230 167.600,276.777 167.600 C 275.663 167.600,267.600 175.663,267.600 176.777 C 267.600 177.242,267.339 177.600,267.000 177.600 C 266.627 177.600,266.400 177.978,266.400 178.600 C 266.400 179.150,266.220 179.600,266.000 179.600 C 265.780 179.600,265.600 180.050,265.600 180.600 C 265.600 181.222,265.373 181.600,265.000 181.600 C 264.627 181.600,264.400 181.978,264.400 182.600 C 264.400 183.150,264.220 183.600,264.000 183.600 C 263.780 183.600,263.600 184.211,263.600 184.957 C 263.600 185.795,263.370 186.403,263.000 186.545 C 262.481 186.744,262.400 188.856,262.400 202.187 L 262.400 217.600 260.400 217.600 L 258.400 217.600 258.400 245.400 L 258.400 273.200 296.300 273.232 C 317.145 273.250,336.270 273.288,338.800 273.316 C 344.271 273.378,347.084 272.645,349.352 270.567 C 350.173 269.815,351.195 269.200,351.622 269.200 C 352.133 269.200,352.400 268.926,352.400 268.400 C 352.400 267.956,352.667 267.600,353.000 267.600 C 353.433 267.600,353.600 267.156,353.600 266.000 C 353.600 265.120,353.780 264.400,354.000 264.400 C 354.222 264.400,354.400 263.333,354.400 262.000 C 354.400 260.667,354.222 259.600,354.000 259.600 C 353.780 259.600,353.600 258.880,353.600 258.000 C 353.600 256.844,353.433 256.400,353.000 256.400 C 352.660 256.400,352.400 256.041,352.400 255.571 C 352.400 254.686,351.534 253.600,350.829 253.600 C 350.593 253.600,350.400 253.345,350.400 253.033 C 350.400 252.722,350.175 252.362,349.900 252.233 C 349.500 252.047,349.500 251.953,349.900 251.767 C 350.175 251.638,350.400 251.278,350.400 250.967 C 350.400 250.655,350.593 250.400,350.829 250.400 C 351.382 250.400,352.400 249.382,352.400 248.829 C 352.400 248.593,352.670 248.400,353.000 248.400 C 353.419 248.400,353.600 247.978,353.600 247.000 C 353.600 246.230,353.780 245.600,354.000 245.600 C 354.231 245.600,354.400 244.333,354.400 242.600 C 354.400 240.867,354.231 239.600,354.000 239.600 C 353.780 239.600,353.600 239.150,353.600 238.600 C 353.600 237.978,353.373 237.600,353.000 237.600 C 352.662 237.600,352.400 237.242,352.400 236.781 C 352.400 236.302,351.250 234.805,349.636 233.181 L 346.872 230.400 338.636 230.400 L 330.400 230.400 330.400 205.182 L 330.400 179.964 328.900 180.282 C 318.145 182.563,309.802 174.021,312.118 163.100 L 312.436 161.600 302.018 161.600 C 295.339 161.600,291.600 161.744,291.600 162.000 M287.155 200.377 C 289.901 201.778,290.200 202.632,290.200 209.068 C 290.200 214.504,290.161 214.778,289.238 215.760 C 284.317 220.997,278.798 217.971,278.465 209.853 C 278.129 201.669,281.813 197.652,287.155 200.377 M316.706 228.649 C 318.161 230.103,317.172 233.197,315.251 233.204 C 312.300 233.215,308.813 235.955,308.210 238.737 C 307.275 243.054,309.310 245.772,314.600 247.270 C 319.766 248.734,317.860 253.612,312.583 252.431 C 300.112 249.640,299.018 233.157,311.000 228.556 C 312.867 227.839,315.947 227.890,316.706 228.649 " stroke="none" fill="#f3a14a" fill-rule="evenodd"></path><path id="path2" d="M185.600 163.000 C 185.600 163.480,185.000 163.600,182.600 163.600 C 180.867 163.600,179.600 163.769,179.600 164.000 C 179.600 164.220,178.964 164.400,178.187 164.400 C 177.301 164.400,176.689 164.623,176.545 165.000 C 176.418 165.330,175.961 165.600,175.529 165.600 C 174.679 165.600,173.600 166.479,173.600 167.171 C 173.600 167.407,173.216 167.600,172.746 167.600 C 172.276 167.600,171.475 168.050,170.965 168.600 C 170.455 169.150,169.747 169.600,169.391 169.600 C 168.656 169.600,167.600 170.527,167.600 171.171 C 167.600 171.407,167.330 171.600,167.000 171.600 C 166.643 171.600,166.400 171.967,166.400 172.505 C 166.400 173.004,165.951 173.747,165.400 174.161 C 164.850 174.574,164.400 175.247,164.400 175.656 C 164.400 176.065,164.220 176.400,164.000 176.400 C 163.780 176.400,163.600 176.831,163.600 177.357 C 163.600 177.884,163.330 178.418,163.000 178.545 C 162.670 178.671,162.400 179.141,162.400 179.587 C 162.400 180.034,162.220 180.400,162.000 180.400 C 161.780 180.400,161.600 181.120,161.600 182.000 C 161.600 183.156,161.433 183.600,161.000 183.600 C 160.547 183.600,160.400 184.089,160.400 185.600 C 160.400 186.700,160.220 187.600,160.000 187.600 C 159.760 187.600,159.600 189.200,159.600 191.600 C 159.600 194.000,159.760 195.600,160.000 195.600 C 160.220 195.600,160.400 196.500,160.400 197.600 C 160.400 199.111,160.547 199.600,161.000 199.600 C 161.363 199.600,161.600 199.971,161.600 200.538 C 161.600 201.054,161.960 201.802,162.400 202.200 C 162.840 202.598,163.200 203.151,163.200 203.428 C 163.200 204.467,167.269 209.965,169.665 212.164 C 176.658 218.581,187.557 221.292,195.616 218.619 C 197.407 218.025,198.966 217.632,199.080 217.747 C 199.194 217.861,199.985 217.515,200.836 216.977 C 201.687 216.440,202.485 216.000,202.609 216.000 C 202.733 216.000,203.771 215.298,204.917 214.440 C 219.229 203.722,220.859 184.853,208.613 171.662 C 206.262 169.131,199.307 164.800,197.591 164.800 C 197.156 164.800,196.800 164.574,196.800 164.297 C 196.800 163.945,196.251 163.838,194.974 163.939 C 193.389 164.065,193.118 163.973,192.927 163.242 C 192.640 162.146,185.600 161.913,185.600 163.000 M224.545 163.000 C 224.357 163.489,223.395 163.600,219.357 163.600 C 216.319 163.600,214.400 163.755,214.400 164.000 C 214.400 164.220,213.770 164.400,213.000 164.400 C 212.022 164.400,211.600 164.581,211.600 165.000 C 211.600 165.373,211.222 165.600,210.600 165.600 C 210.050 165.600,209.600 165.780,209.600 166.000 C 209.600 166.220,209.330 166.400,209.000 166.400 C 207.719 166.400,208.522 167.766,211.426 170.525 C 213.996 172.966,216.193 175.827,218.251 179.414 C 218.631 180.074,219.054 180.179,220.902 180.070 C 229.795 179.544,236.117 187.549,233.168 195.600 C 232.725 196.810,232.261 198.109,232.138 198.486 C 231.967 199.010,232.420 199.414,234.057 200.195 C 238.062 202.108,240.768 204.222,243.065 207.234 C 244.894 209.632,244.853 209.631,246.389 207.354 C 250.112 201.837,251.007 198.687,250.976 191.200 C 250.944 183.378,250.057 180.816,244.895 173.633 C 243.184 171.252,236.569 166.355,234.296 165.787 C 233.689 165.635,233.094 165.351,232.973 165.156 C 232.852 164.960,232.313 164.800,231.776 164.800 C 231.175 164.800,230.800 164.569,230.800 164.200 C 230.800 163.767,230.356 163.600,229.200 163.600 C 228.044 163.600,227.600 163.433,227.600 163.000 C 227.600 162.580,227.176 162.400,226.187 162.400 C 225.301 162.400,224.689 162.623,224.545 163.000 M193.503 173.548 C 205.256 176.634,210.670 189.459,204.923 200.600 C 203.724 202.925,201.592 205.290,199.600 206.504 C 198.830 206.974,198.110 207.458,198.000 207.580 C 194.343 211.634,182.778 210.641,176.922 205.768 C 165.926 196.618,169.415 176.996,182.600 173.836 C 187.617 172.634,189.801 172.576,193.503 173.548 M280.161 201.640 C 278.142 203.747,278.149 213.949,280.171 216.131 C 281.921 218.019,282.000 217.713,282.000 209.024 C 282.000 200.188,281.908 199.818,280.161 201.640 M286.400 208.963 C 286.400 218.499,286.458 218.653,289.025 215.974 C 291.107 213.800,290.965 203.918,288.818 201.619 C 286.504 199.142,286.400 199.457,286.400 208.963 M44.545 269.000 C 44.359 269.483,43.461 269.600,39.957 269.600 C 37.319 269.600,35.600 269.758,35.600 270.000 C 35.600 270.220,34.964 270.400,34.187 270.400 C 33.301 270.400,32.689 270.623,32.545 271.000 C 32.379 271.430,31.706 271.600,30.162 271.600 C 27.519 271.600,26.400 272.400,26.400 274.289 C 26.400 275.010,26.593 275.600,26.829 275.600 C 27.382 275.600,28.400 276.618,28.400 277.171 C 28.400 277.432,29.418 277.600,31.000 277.600 C 32.467 277.600,33.600 277.774,33.600 278.000 C 33.600 278.220,34.230 278.400,35.000 278.400 C 35.978 278.400,36.400 278.581,36.400 279.000 C 36.400 279.499,37.178 279.600,41.000 279.600 C 43.800 279.600,45.600 279.757,45.600 280.000 C 45.600 280.231,46.867 280.400,48.600 280.400 C 51.000 280.400,51.600 280.520,51.600 281.000 C 51.600 281.512,52.689 281.600,59.000 281.600 C 63.667 281.600,66.400 281.748,66.400 282.000 C 66.400 282.256,70.000 282.400,76.400 282.400 C 85.022 282.400,86.400 282.483,86.400 283.000 C 86.400 283.510,87.444 283.600,93.400 283.600 C 97.800 283.600,100.400 283.749,100.400 284.000 C 100.400 284.261,107.533 284.400,121.000 284.400 C 139.044 284.400,141.600 284.474,141.600 285.000 C 141.600 285.531,148.200 285.600,198.600 285.600 C 249.000 285.600,255.600 285.531,255.600 285.000 C 255.600 284.475,258.133 284.400,276.000 284.400 C 289.333 284.400,296.400 284.261,296.400 284.000 C 296.400 283.749,299.000 283.600,303.400 283.600 C 309.356 283.600,310.400 283.510,310.400 283.000 C 310.400 282.482,311.844 282.400,321.000 282.400 C 327.800 282.400,331.600 282.257,331.600 282.000 C 331.600 281.749,334.200 281.600,338.600 281.600 C 344.556 281.600,345.600 281.510,345.600 281.000 C 345.600 280.514,346.244 280.400,349.000 280.400 C 351.000 280.400,352.400 280.235,352.400 280.000 C 352.400 279.760,354.000 279.600,356.400 279.600 C 359.689 279.600,360.400 279.493,360.400 279.000 C 360.400 278.547,360.889 278.400,362.400 278.400 C 363.500 278.400,364.400 278.220,364.400 278.000 C 364.400 277.774,365.533 277.600,367.000 277.600 C 368.582 277.600,369.600 277.432,369.600 277.171 C 369.600 276.618,370.618 275.600,371.171 275.600 C 371.407 275.600,371.600 274.880,371.600 274.000 C 371.600 272.560,371.500 272.400,370.600 272.400 C 370.050 272.400,369.600 272.220,369.600 272.000 C 369.600 271.780,368.700 271.600,367.600 271.600 C 366.089 271.600,365.600 271.453,365.600 271.000 C 365.600 270.547,365.111 270.400,363.600 270.400 C 362.500 270.400,361.600 270.241,361.600 270.046 C 361.600 269.852,359.138 269.621,356.128 269.533 L 350.656 269.373 349.258 270.654 C 346.158 273.493,359.622 273.262,199.596 273.222 C 78.912 273.192,55.335 273.097,54.270 272.641 C 53.572 272.341,52.219 271.264,51.264 270.248 C 49.368 268.230,45.141 267.445,44.545 269.000 " stroke="none" fill="#dadad9" fill-rule="evenodd"></path><path id="path3" d="M192.874 163.100 C 193.088 164.226,196.400 164.342,196.400 163.223 C 196.400 162.512,196.150 162.400,194.571 162.400 C 193.045 162.400,192.763 162.516,192.874 163.100 M196.800 164.200 C 196.800 164.531,197.155 164.800,197.591 164.800 C 199.307 164.800,206.262 169.131,208.613 171.662 C 220.859 184.853,219.229 203.722,204.917 214.440 C 203.771 215.298,202.733 216.000,202.609 216.000 C 202.485 216.000,201.713 216.422,200.892 216.937 C 200.071 217.453,199.220 217.814,199.000 217.741 C 198.780 217.667,197.340 218.061,195.800 218.615 L 193.000 219.623 195.400 219.400 C 211.866 217.875,223.810 201.663,220.155 185.800 C 219.800 184.260,219.485 182.460,219.455 181.800 C 219.425 181.140,219.085 180.365,218.700 180.077 C 218.315 179.790,218.000 179.379,218.000 179.164 C 218.000 178.171,214.155 173.117,211.426 170.525 C 209.762 168.943,208.400 167.368,208.400 167.025 C 208.400 166.625,208.040 166.400,207.400 166.400 C 206.850 166.400,206.400 166.220,206.400 166.000 C 206.400 165.780,205.950 165.600,205.400 165.600 C 204.778 165.600,204.400 165.373,204.400 165.000 C 204.400 164.581,203.978 164.400,203.000 164.400 C 202.230 164.400,201.600 164.220,201.600 164.000 C 201.600 163.778,200.533 163.600,199.200 163.600 C 197.333 163.600,196.800 163.733,196.800 164.200 M230.800 164.200 C 230.800 164.569,231.175 164.800,231.776 164.800 C 232.313 164.800,232.852 164.960,232.973 165.156 C 233.094 165.351,233.689 165.635,234.296 165.787 C 236.569 166.355,243.184 171.252,244.895 173.633 C 247.962 177.901,248.925 179.667,250.288 183.521 C 251.167 186.007,251.263 196.066,250.436 199.000 C 249.471 202.425,245.716 209.200,244.783 209.200 C 244.336 209.200,246.244 212.853,246.913 213.278 C 247.699 213.778,248.400 213.646,248.400 213.000 C 248.400 212.670,248.593 212.400,248.829 212.400 C 249.534 212.400,250.400 211.314,250.400 210.429 C 250.400 209.959,250.660 209.600,251.000 209.600 C 251.330 209.600,251.600 209.330,251.600 209.000 C 251.600 208.670,251.780 208.400,252.000 208.400 C 252.220 208.400,252.400 207.950,252.400 207.400 C 252.400 206.850,252.593 206.400,252.829 206.400 C 253.683 206.400,254.400 205.226,254.400 203.829 C 254.400 202.825,254.579 202.400,255.000 202.400 C 255.419 202.400,255.600 201.978,255.600 201.000 C 255.600 200.230,255.780 199.600,256.000 199.600 C 256.220 199.600,256.400 198.880,256.400 198.000 C 256.400 196.844,256.567 196.400,257.000 196.400 C 257.500 196.400,257.600 195.599,257.600 191.587 C 257.600 187.679,257.487 186.732,257.000 186.545 C 256.630 186.403,256.400 185.795,256.400 184.957 C 256.400 184.211,256.220 183.600,256.000 183.600 C 255.780 183.600,255.600 182.964,255.600 182.187 C 255.600 181.301,255.377 180.689,255.000 180.545 C 254.649 180.410,254.400 179.811,254.400 179.103 C 254.400 178.325,254.043 177.560,253.400 176.965 C 252.850 176.455,252.400 175.747,252.400 175.391 C 252.400 174.656,251.473 173.600,250.829 173.600 C 250.593 173.600,250.400 173.330,250.400 173.000 C 250.400 172.670,250.220 172.400,250.000 172.400 C 249.780 172.400,249.600 172.080,249.600 171.689 C 249.600 170.786,248.235 169.600,247.195 169.600 C 246.758 169.600,246.400 169.407,246.400 169.171 C 246.400 168.527,245.344 167.600,244.609 167.600 C 244.253 167.600,243.545 167.150,243.035 166.600 C 242.525 166.050,241.724 165.600,241.254 165.600 C 240.762 165.600,240.400 165.346,240.400 165.000 C 240.400 164.581,239.978 164.400,239.000 164.400 C 238.230 164.400,237.600 164.220,237.600 164.000 C 237.600 163.765,236.200 163.600,234.200 163.600 C 231.444 163.600,230.800 163.714,230.800 164.200 M185.400 173.224 C 182.006 173.912,181.324 174.172,178.905 175.694 C 159.348 188.007,176.072 218.472,196.800 208.292 C 197.350 208.022,197.890 207.701,198.000 207.580 C 198.110 207.458,198.830 206.974,199.600 206.504 C 215.882 196.576,204.284 169.396,185.400 173.224 M191.180 186.719 C 194.009 188.114,194.936 191.774,193.155 194.512 C 189.412 200.263,180.682 194.789,184.047 188.801 C 185.525 186.172,188.381 185.338,191.180 186.719 M281.924 200.300 C 281.856 200.465,281.896 204.380,282.012 209.000 L 282.225 217.400 282.312 208.700 C 282.391 200.865,282.321 199.337,281.924 200.300 M286.080 209.100 C 286.162 218.304,286.309 217.246,286.497 206.099 C 286.554 202.744,286.465 199.999,286.300 199.999 C 286.135 200.000,286.036 204.095,286.080 209.100 M278.548 208.800 C 278.548 211.110,278.614 212.055,278.695 210.900 C 278.776 209.745,278.776 207.855,278.695 206.700 C 278.614 205.545,278.548 206.490,278.548 208.800 M247.062 273.300 C 247.164 273.465,249.656 273.600,252.600 273.600 C 255.544 273.600,258.036 273.465,258.138 273.300 C 258.239 273.135,255.747 273.000,252.599 273.000 C 249.451 273.000,246.959 273.135,247.062 273.300 " stroke="none" fill="#a7a19a" fill-rule="evenodd"></path><path id="path4" d="M311.990 163.848 C 310.210 172.423,316.116 180.322,324.461 180.528 C 327.793 180.610,330.400 180.172,330.400 179.531 C 330.400 179.234,329.865 179.206,328.700 179.443 C 318.769 181.458,310.147 173.012,312.867 163.934 C 313.200 162.822,313.211 162.251,312.904 161.944 C 312.598 161.638,312.335 162.184,311.990 163.848 M186.195 186.595 C 184.487 187.346,183.047 190.042,183.309 191.996 C 183.991 197.082,190.414 198.723,193.155 194.512 C 196.183 189.858,191.330 184.338,186.195 186.595 M191.513 187.424 C 196.025 190.585,192.695 197.407,187.227 196.206 C 183.488 195.385,182.694 188.594,186.172 187.186 C 187.562 186.623,190.561 186.757,191.513 187.424 M282.638 199.939 C 282.033 200.917,282.351 217.741,282.980 218.093 C 284.068 218.702,285.782 218.294,285.890 217.400 C 285.943 216.960,285.884 216.825,285.760 217.100 C 285.408 217.878,283.677 217.692,283.214 216.826 C 282.969 216.369,282.800 212.859,282.800 208.234 L 282.800 200.415 283.799 200.164 C 284.349 200.027,285.069 200.017,285.399 200.144 C 285.730 200.271,286.000 200.201,286.000 199.987 C 286.000 199.512,282.929 199.467,282.638 199.939 M247.429 218.229 C 246.346 219.311,246.487 272.204,247.574 272.786 C 248.397 273.227,256.702 273.366,257.767 272.957 C 258.707 272.597,258.739 217.600,257.800 217.600 C 257.272 217.600,257.200 220.933,257.200 245.200 L 257.200 272.800 252.595 272.800 L 247.989 272.800 248.095 245.200 C 248.153 230.020,248.168 217.600,248.129 217.600 C 248.089 217.600,247.774 217.883,247.429 218.229 M311.000 228.556 C 299.018 233.157,300.112 249.640,312.583 252.431 C 317.860 253.612,319.766 248.734,314.600 247.270 C 309.310 245.772,307.275 243.054,308.210 238.737 C 308.813 235.955,312.300 233.215,315.251 233.204 C 317.172 233.197,318.161 230.103,316.706 228.649 C 315.947 227.890,312.867 227.839,311.000 228.556 M316.320 229.280 C 317.618 230.578,316.257 232.800,314.164 232.800 C 310.387 232.800,307.200 236.381,307.200 240.625 C 307.200 241.575,307.380 242.464,307.600 242.600 C 307.820 242.736,308.000 243.160,308.000 243.542 C 308.000 245.124,311.898 248.000,314.042 248.000 C 316.361 248.000,317.695 250.232,316.100 251.443 C 315.177 252.144,313.790 252.124,311.650 251.379 C 303.158 248.421,300.565 238.883,306.491 232.400 C 308.967 229.692,314.861 227.821,316.320 229.280 " stroke="none" fill="#a06c30" fill-rule="evenodd"></path></g></svg>